<svg width="24" height="24" viewBox="0 0 24 24" fill="none" xmlns="http://www.w3.org/2000/svg">
    <g opacity="0.4">
        <path d="M7 2H17C17.7956 2 18.5587 2.31607 19.1213 2.87868C19.6839 3.44129 20 4.20435 20 5V19C20 19.7956 19.6839 20.5587 19.1213 21.1213C18.5587 21.6839 17.7956 22 17 22H7C6.20435 22 5.44129 21.6839 4.87868 21.1213C4.31607 20.5587 4 19.7956 4 19V5C4 4.20435 4.31607 3.44129 4.87868 2.87868C5.44129 2.31607 6.20435 2 7 2ZM8 9C7.73478 9 7.48043 9.10536 7.29289 9.29289C7.10536 9.48043 7 9.73478 7 10C7 10.2652 7.10536 10.5196 7.29289 10.7071C7.48043 10.8946 7.73478 11 8 11H16C16.2652 11 16.5196 10.8946 16.7071 10.7071C16.8946 10.5196 17 10.2652 17 10C17 9.73478 16.8946 9.48043 16.7071 9.29289C16.5196 9.10536 16.2652 9 16 9H8ZM8 17C7.73478 17 7.48043 17.1054 7.29289 17.2929C7.10536 17.4804 7 17.7348 7 18C7 18.2652 7.10536 18.5196 7.29289 18.7071C7.48043 18.8946 7.73478 19 8 19H13C13.2652 19 13.5196 18.8946 13.7071 18.7071C13.8946 18.5196 14 18.2652 14 18C14 17.7348 13.8946 17.4804 13.7071 17.2929C13.5196 17.1054 13.2652 17 13 17H8ZM8 5C7.73478 5 7.48043 5.10536 7.29289 5.29289C7.10536 5.48043 7 5.73478 7 6C7 6.26522 7.10536 6.51957 7.29289 6.70711C7.48043 6.89464 7.73478 7 8 7H16C16.2652 7 16.5196 6.89464 16.7071 6.70711C16.8946 6.51957 17 6.26522 17 6C17 5.73478 16.8946 5.48043 16.7071 5.29289C16.5196 5.10536 16.2652 5 16 5H8ZM8 13C7.73478 13 7.48043 13.1054 7.29289 13.2929C7.10536 13.4804 7 13.7348 7 14C7 14.2652 7.10536 14.5196 7.29289 14.7071C7.48043 14.8946 7.73478 15 8 15H16C16.2652 15 16.5196 14.8946 16.7071 14.7071C16.8946 14.5196 17 14.2652 17 14C17 13.7348 16.8946 13.4804 16.7071 13.2929C16.5196 13.1054 16.2652 13 16 13H8Z" fill="#4F4F4F"/>
    </g>
</svg>
