<svg width="24" height="24" viewBox="0 0 24 24" fill="none" xmlns="http://www.w3.org/2000/svg">
    <g opacity="0.4">
        <path fill-rule="evenodd" clip-rule="evenodd" d="M3 11.1111C3 15.5908 6.63147 19.2222 11.1111 19.2222C15.5908 19.2222 19.2222 15.5908 19.2222 11.1111C19.2222 6.63147 15.5908 3 11.1111 3C6.63147 3 3 6.63147 3 11.1111ZM17.2222 11.1111C17.2222 14.4862 14.4862 17.2222 11.1111 17.2222C7.73604 17.2222 5 14.4862 5 11.1111C5 7.73604 7.73604 5 11.1111 5C14.4862 5 17.2222 7.73604 17.2222 11.1111Z" fill="#4F4F4F"/>
        <path d="M20.7071 19.2929C21.0976 19.6834 21.0976 20.3165 20.7071 20.7071C20.3165 21.0976 19.6834 21.0976 19.2929 20.7071L15.4262 16.8404C15.0357 16.4499 15.0357 15.8167 15.4262 15.4262C15.8167 15.0357 16.4499 15.0357 16.8404 15.4262L20.7071 19.2929Z" fill="#4F4F4F"/>
    </g>
</svg>
