<svg width="22" height="18" viewBox="0 0 22 18" fill="none" xmlns="http://www.w3.org/2000/svg">
    <g clip-path="url(#clip0_3206_751)">
        <path d="M21.5002 4.16953L19.1823 0.527344C18.9752 0.200391 18.6073 0 18.2145 0H3.7859C3.39304 0 3.02519 0.200391 2.81804 0.527344L0.500187 4.16953C-0.696242 6.05039 0.364473 8.66602 2.60019 8.96484C2.7609 8.98594 2.92519 8.99648 3.08947 8.99648C4.14662 8.99648 5.08233 8.53945 5.72519 7.83281C6.36804 8.53945 7.30733 8.99648 8.3609 8.99648C9.41805 8.99648 10.3538 8.53945 10.9966 7.83281C11.6395 8.53945 12.5788 8.99648 13.6323 8.99648C14.6895 8.99648 15.6252 8.53945 16.268 7.83281C16.9145 8.53945 17.8502 8.99648 18.9038 8.99648C19.0716 8.99648 19.2323 8.98594 19.393 8.96484C21.6359 8.66953 22.7002 6.05391 21.5002 4.16953ZM18.9109 10.125C18.5538 10.125 18.2002 10.0723 17.8573 9.99141V13.5H4.14304V9.99141C3.80019 10.0688 3.44662 10.125 3.08947 10.125C2.87519 10.125 2.65733 10.1109 2.44662 10.0828C2.24662 10.0547 2.05019 10.009 1.8609 9.95625V16.875C1.8609 17.4973 2.37162 18 3.00376 18H19.0038C19.6359 18 20.1466 17.4973 20.1466 16.875V9.95625C19.9538 10.0125 19.7609 10.0582 19.5609 10.0828C19.343 10.1109 19.1288 10.125 18.9109 10.125Z" fill="#4F4F4F"/>
    </g>
    <defs>
        <clipPath id="clip0_3206_751">
            <rect width="22" height="18" fill="white"/>
        </clipPath>
    </defs>
</svg>
